G04*
G04 #@! TF.GenerationSoftware,Altium Limited,Altium Designer,20.1.14 (287)*
G04*
G04 Layer_Color=16711935*
%FSLAX25Y25*%
%MOIN*%
G70*
G04*
G04 #@! TF.SameCoordinates,068E075E-6B28-4131-8978-D2EB394F3ECB*
G04*
G04*
G04 #@! TF.FilePolarity,Negative*
G04*
G01*
G75*
%ADD17C,0.05524*%
%ADD18C,0.07099*%
%ADD19C,0.08280*%
%ADD20C,0.06312*%
%ADD21R,0.05524X0.05524*%
%ADD22R,0.06312X0.06312*%
%ADD23R,0.06706X0.06706*%
%ADD24C,0.06706*%
%ADD25R,0.07493X0.07493*%
%ADD26C,0.07493*%
D17*
X77000Y95000D02*
D03*
X47000D02*
D03*
X105000Y122500D02*
D03*
X75000D02*
D03*
X159500Y121500D02*
D03*
X129500D02*
D03*
X159000Y90000D02*
D03*
Y60000D02*
D03*
X205000Y136000D02*
D03*
X31000Y138000D02*
D03*
D18*
X201618Y56118D02*
D03*
D19*
X221500Y36236D02*
D03*
X181736Y76000D02*
D03*
Y36236D02*
D03*
X221500Y76000D02*
D03*
D20*
X137500Y5500D02*
D03*
Y35500D02*
D03*
X113000D02*
D03*
Y5500D02*
D03*
X122343Y164500D02*
D03*
X112500D02*
D03*
D21*
X205000Y166000D02*
D03*
X31000Y168000D02*
D03*
D22*
X102657Y164500D02*
D03*
D23*
X107000Y58500D02*
D03*
D24*
X117000D02*
D03*
X127000D02*
D03*
X137000D02*
D03*
X107000Y88500D02*
D03*
X117000D02*
D03*
X127000D02*
D03*
X137000D02*
D03*
D25*
X46000Y48500D02*
D03*
D26*
Y58500D02*
D03*
M02*
