G04*
G04 #@! TF.GenerationSoftware,Altium Limited,Altium Designer,20.1.14 (287)*
G04*
G04 Layer_Physical_Order=1*
G04 Layer_Color=255*
%FSLAX25Y25*%
%MOIN*%
G70*
G04*
G04 #@! TF.SameCoordinates,068E075E-6B28-4131-8978-D2EB394F3ECB*
G04*
G04*
G04 #@! TF.FilePolarity,Positive*
G04*
G01*
G75*
%ADD13C,0.01000*%
%ADD15R,0.03543X0.02756*%
%ADD27C,0.00800*%
%ADD28C,0.04724*%
%ADD29C,0.06299*%
%ADD30C,0.07480*%
%ADD31C,0.05512*%
%ADD32R,0.04724X0.04724*%
%ADD33R,0.05512X0.05512*%
%ADD34R,0.05906X0.05906*%
%ADD35C,0.05906*%
%ADD36R,0.06693X0.06693*%
%ADD37C,0.06693*%
D13*
X205000Y166000D02*
X208362D01*
X216760Y76000D02*
X221500D01*
X205000Y166000D02*
Y169362D01*
Y162638D02*
Y166000D01*
X221500Y76000D02*
Y80740D01*
Y76000D02*
X226240D01*
X221500Y71260D02*
Y76000D01*
X201638Y166000D02*
X205000D01*
X126138Y121500D02*
X129500D01*
X132862D01*
X129500D02*
Y124862D01*
Y118138D02*
Y121500D01*
X181736Y76000D02*
Y80740D01*
Y76000D02*
X186476D01*
X181736Y71260D02*
Y76000D01*
X176996D02*
X181736D01*
X159000Y60000D02*
Y63362D01*
Y60000D02*
X162362D01*
X159000Y56638D02*
Y60000D01*
X155638D02*
X159000D01*
X127000Y58500D02*
Y62453D01*
Y54547D02*
Y58500D01*
X130953D01*
X221500Y36236D02*
X226240D01*
X221500Y31496D02*
Y36236D01*
Y40976D01*
X216760Y36236D02*
X221500D01*
X181736D02*
Y40976D01*
Y36236D02*
X186476D01*
X176996D02*
X181736D01*
Y31496D02*
Y36236D01*
X112500Y164500D02*
X116256D01*
X112500D02*
Y168256D01*
X108744Y164500D02*
X112500D01*
Y160744D02*
Y164500D01*
X75000Y122500D02*
Y125862D01*
X71638Y122500D02*
X75000D01*
X78362D01*
X75000Y119138D02*
Y122500D01*
X47000Y91638D02*
Y95000D01*
X31000Y138000D02*
Y141362D01*
Y138000D02*
X34362D01*
X27638D02*
X31000D01*
Y134638D02*
Y138000D01*
X47000Y95000D02*
Y98362D01*
Y95000D02*
X50362D01*
X43638D02*
X47000D01*
X46000Y58500D02*
Y62846D01*
Y58500D02*
X50346D01*
X46000Y54154D02*
Y58500D01*
X41654D02*
X46000D01*
X112500Y138500D02*
X129500Y121500D01*
X102657Y124843D02*
X105000Y122500D01*
X102657Y124843D02*
Y164500D01*
X31000Y111000D02*
Y138000D01*
Y111000D02*
X47000Y95000D01*
X159000Y90000D02*
X159500Y106300D01*
X47000Y77800D02*
Y95000D01*
X46000Y58500D02*
X47000Y77800D01*
X159500Y106300D02*
Y121500D01*
X156000Y10953D02*
X181553D01*
X201618Y31018D02*
Y56118D01*
X122343Y158657D02*
X159500Y121500D01*
X122343Y158657D02*
Y164500D01*
X137000Y58500D02*
Y68000D01*
X181553Y10953D02*
X201618Y31018D01*
X122700Y20300D02*
X137500Y5500D01*
X122700Y84200D02*
X127000Y88500D01*
X105000Y122500D02*
X117000Y110500D01*
X137000Y68000D02*
X159000Y90000D01*
X117000Y88500D02*
Y110500D01*
X112500Y138500D02*
Y164500D01*
X122700Y20300D02*
Y84200D01*
X113000Y35500D02*
X117000Y39500D01*
X146953Y5047D02*
X156000D01*
X129500Y121500D02*
X131700Y119300D01*
Y63200D02*
Y119300D01*
X137500Y5500D02*
X146500D01*
X117000Y39500D02*
Y58500D01*
X146500Y5500D02*
X146953Y5047D01*
X181736Y36236D02*
Y76000D01*
X127000Y58500D02*
X131700Y63200D01*
X221500Y36236D02*
Y76000D01*
D15*
X156000Y5047D02*
D03*
Y10953D02*
D03*
D27*
X226640Y76000D02*
G03*
X226640Y76000I-5140J0D01*
G01*
X208562Y136000D02*
G03*
X208562Y136000I-3562J0D01*
G01*
X203318Y52115D02*
G03*
X205967Y56118I-1700J4004D01*
G01*
D02*
G03*
X199918Y52115I-4350J0D01*
G01*
X163062Y121500D02*
G03*
X158489Y124916I-3562J0D01*
G01*
X161200Y118370D02*
G03*
X163062Y121500I-1700J3130D01*
G01*
X156084Y122511D02*
G03*
X157800Y118370I3416J-1011D01*
G01*
X162562Y90000D02*
G03*
X160795Y93077I-3562J0D01*
G01*
X157989Y86584D02*
G03*
X162562Y90000I1011J3416D01*
G01*
X157397Y93181D02*
G03*
X155584Y88989I1603J-3181D01*
G01*
X133262Y121500D02*
G03*
X133262Y121500I-3762J0D01*
G01*
X141153Y88500D02*
G03*
X141153Y88500I-4153J0D01*
G01*
X186876Y76000D02*
G03*
X186876Y76000I-5140J0D01*
G01*
X162762Y60000D02*
G03*
X162762Y60000I-3762J0D01*
G01*
X141153Y58500D02*
G03*
X138700Y62289I-4153J0D01*
G01*
X135800Y69204D02*
G03*
X135300Y68000I1200J-1204D01*
G01*
X135798Y69202D02*
G03*
X135300Y68000I1202J-1202D01*
G01*
X125523Y84619D02*
G03*
X131153Y88500I1477J3881D01*
G01*
X135300Y62289D02*
G03*
X141153Y58500I1700J-3789D01*
G01*
X131353D02*
G03*
X124400Y61991I-4353J0D01*
G01*
X226640Y36236D02*
G03*
X226640Y36236I-5140J0D01*
G01*
X202820Y29816D02*
G03*
X203318Y31018I-1202J1202D01*
G01*
X202818Y29814D02*
G03*
X203318Y31018I-1200J1204D01*
G01*
X186876Y36236D02*
G03*
X186876Y36236I-5140J0D01*
G01*
X141456Y35500D02*
G03*
X141456Y35500I-3956J0D01*
G01*
X181553Y9253D02*
G03*
X182757Y9753I0J1700D01*
G01*
X181553Y9253D02*
G03*
X182755Y9751I0J1700D01*
G01*
X147655Y6747D02*
G03*
X146500Y7200I-1155J-1247D01*
G01*
X147655Y6747D02*
G03*
X146500Y7200I-1155J-1247D01*
G01*
X141072D02*
G03*
X136176Y9228I-3572J-1700D01*
G01*
X145798Y3800D02*
G03*
X146953Y3347I1155J1247D01*
G01*
X145798Y3800D02*
G03*
X146953Y3347I1155J1247D01*
G01*
X133772Y6824D02*
G03*
X141072Y3800I3728J-1324D01*
G01*
X126298Y164500D02*
G03*
X120643Y160928I-3956J0D01*
G01*
X124043D02*
G03*
X126298Y164500I-1700J3572D01*
G01*
X116656D02*
G03*
X116656Y164500I-4156J0D01*
G01*
X120643Y158657D02*
G03*
X121141Y157455I1700J0D01*
G01*
X120643Y158657D02*
G03*
X121142Y157453I1700J0D01*
G01*
X118700Y110500D02*
G03*
X118200Y111704I-1700J0D01*
G01*
X118700Y110500D02*
G03*
X118202Y111702I-1700J0D01*
G01*
X131153Y88500D02*
G03*
X123119Y87023I-4153J0D01*
G01*
X121153Y88500D02*
G03*
X118700Y92289I-4153J0D01*
G01*
X121500Y85404D02*
G03*
X121000Y84200I1200J-1204D01*
G01*
X121498Y85402D02*
G03*
X121000Y84200I1202J-1202D01*
G01*
X108416Y121489D02*
G03*
X108562Y122500I-3416J1011D01*
G01*
D02*
G03*
X104357Y126004I-3562J0D01*
G01*
X115300Y92289D02*
G03*
X121153Y88500I1700J-3789D01*
G01*
X111153D02*
G03*
X111153Y88500I-4153J0D01*
G01*
X100957Y124843D02*
G03*
X101455Y123641I1700J0D01*
G01*
X100957Y124843D02*
G03*
X101457Y123639I1700J0D01*
G01*
X101584Y123511D02*
G03*
X106011Y119084I3416J-1011D01*
G01*
X78762Y122500D02*
G03*
X78762Y122500I-3762J0D01*
G01*
X80562Y95000D02*
G03*
X80562Y95000I-3562J0D01*
G01*
X34762Y138000D02*
G03*
X34762Y138000I-3762J0D01*
G01*
X50762Y95000D02*
G03*
X50762Y95000I-3762J0D01*
G01*
X118700Y54711D02*
G03*
X121000Y57384I-1700J3789D01*
G01*
Y59616D02*
G03*
X115300Y54711I-4000J-1116D01*
G01*
X124400Y55009D02*
G03*
X131353Y58500I2600J3491D01*
G01*
X118202Y38298D02*
G03*
X118700Y39500I-1202J1202D01*
G01*
X118200Y38296D02*
G03*
X118700Y39500I-1200J1204D01*
G01*
X121000Y20300D02*
G03*
X121498Y19098I1700J0D01*
G01*
X121000Y20300D02*
G03*
X121500Y19096I1700J0D01*
G01*
X116956Y35500D02*
G03*
X116728Y36824I-3956J0D01*
G01*
X114324Y39228D02*
G03*
X116956Y35500I-1324J-3728D01*
G01*
Y5500D02*
G03*
X116956Y5500I-3956J0D01*
G01*
X50747Y58500D02*
G03*
X50747Y58500I-4747J0D01*
G01*
X271287Y199050D02*
X299050Y171287D01*
X274116Y199050D02*
X299050Y174116D01*
X268459Y199050D02*
X299050Y168459D01*
X262802Y199050D02*
X299050Y162802D01*
X259974Y199050D02*
X299050Y159974D01*
X257145Y199050D02*
X299050Y157145D01*
X254317Y199050D02*
X299050Y154317D01*
X251488Y199050D02*
X299050Y151488D01*
X248660Y199050D02*
X299050Y148660D01*
X296743Y199050D02*
X299050Y196743D01*
X293915Y199050D02*
X299050Y193915D01*
X291086Y199050D02*
X299050Y191086D01*
X288258Y199050D02*
X299050Y188258D01*
X285430Y199050D02*
X299050Y185430D01*
X282601Y199050D02*
X299050Y182601D01*
X279773Y199050D02*
X299050Y179773D01*
X276944Y199050D02*
X299050Y176944D01*
X243003Y199050D02*
X299050Y143003D01*
X245831Y199050D02*
X299050Y145832D01*
X240175Y199050D02*
X299050Y140175D01*
X217547Y199050D02*
X299050Y117547D01*
X209062Y199050D02*
X299050Y109062D01*
X237346Y199050D02*
X299050Y137346D01*
X234518Y199050D02*
X299050Y134518D01*
X231689Y199050D02*
X299050Y131689D01*
X228861Y199050D02*
X299050Y128861D01*
X208362Y134823D02*
X272589Y199050D01*
X220376D02*
X299050Y120376D01*
X206897Y139015D02*
X266932Y199050D01*
X208225Y137514D02*
X269761Y199050D01*
X226032D02*
X299050Y126032D01*
X223204Y199050D02*
X299050Y123204D01*
X214719Y199050D02*
X299050Y114719D01*
X211890Y199050D02*
X299050Y111890D01*
X204593Y139539D02*
X264104Y199050D01*
X161148Y104579D02*
X255619Y199050D01*
X161058Y101662D02*
X258447Y199050D01*
X151602Y131803D02*
X218849Y199050D01*
X160969Y98744D02*
X261276Y199050D01*
X206234D02*
X299050Y106234D01*
X203405Y199050D02*
X299050Y103405D01*
X200577Y199050D02*
X299050Y100577D01*
X197748Y199050D02*
X299050Y97748D01*
X144008Y199050D02*
X203730Y139328D01*
X144530Y138874D02*
X204707Y199050D01*
X143116Y140288D02*
X201878Y199050D01*
X141180D02*
X202126Y138104D01*
X177949Y199050D02*
X207237Y169762D01*
X150187Y133217D02*
X216021Y199050D01*
X146836D02*
X206831Y139056D01*
X148773Y134631D02*
X213192Y199050D01*
X180778D02*
X299050Y80778D01*
X160979Y199050D02*
X299050Y60979D01*
X152493Y199050D02*
X299050Y52493D01*
X149665Y199050D02*
X299050Y49665D01*
X192091Y199050D02*
X299050Y92091D01*
X189263Y199050D02*
X299050Y89263D01*
X186434Y199050D02*
X299050Y86435D01*
X183606Y199050D02*
X299050Y83606D01*
X159835Y63668D02*
X295217Y199050D01*
X141111Y59087D02*
X281075Y199050D01*
X138700Y62332D02*
X275418Y199050D01*
X140264Y61068D02*
X278246Y199050D01*
X194920D02*
X299050Y94920D01*
X179726Y80731D02*
X298045Y199050D01*
X158150D02*
X299050Y58150D01*
X155322Y199050D02*
X299050Y55322D01*
X265631Y199050D02*
X299050Y165630D01*
X208762Y163507D02*
X244305Y199050D01*
X219180Y80587D02*
X299050Y160457D01*
X208762Y166336D02*
X241476Y199050D01*
X208762Y168237D02*
X299050Y77949D01*
X225837Y78759D02*
X299050Y151972D01*
X226594Y76687D02*
X299050Y149143D01*
X222469Y81048D02*
X299050Y157629D01*
X224455Y80206D02*
X299050Y154800D01*
X208762Y169164D02*
X238648Y199050D01*
X208762Y162238D02*
Y169762D01*
X203703D02*
X232991Y199050D01*
X206532Y169762D02*
X235820Y199050D01*
X208762Y165409D02*
X299050Y75121D01*
X208762Y162580D02*
X299050Y72292D01*
X206276Y162238D02*
X299050Y69464D01*
X203448Y162238D02*
X299050Y66636D01*
X225469Y72734D02*
X299050Y146315D01*
X208056Y137831D02*
X299050Y46837D01*
X203318Y47754D02*
X299050Y143486D01*
X203318Y44926D02*
X299050Y140658D01*
X208328Y134730D02*
X299050Y44008D01*
X205967Y56060D02*
X220813Y70906D01*
X204005Y59755D02*
X217295Y73045D01*
X205380Y58301D02*
X218741Y71663D01*
X161200Y113117D02*
X247133Y199050D01*
X157258Y126146D02*
X230163Y199050D01*
X161200Y110288D02*
X249962Y199050D01*
X154430Y128974D02*
X224506Y199050D01*
X155844Y127560D02*
X227334Y199050D01*
X201238Y169762D02*
X208762D01*
X201238Y162238D02*
X208762D01*
X147359Y136045D02*
X210364Y199050D01*
X153016Y130388D02*
X221677Y199050D01*
X175121D02*
X204409Y169762D01*
X172292Y199050D02*
X201580Y169762D01*
X145945Y137459D02*
X207535Y199050D01*
X162916Y120489D02*
X204664Y162238D01*
X162688Y123090D02*
X201836Y162238D01*
X161200Y115945D02*
X207493Y162238D01*
X182843Y81020D02*
X299050Y197227D01*
X184788Y80136D02*
X299050Y194398D01*
X161200Y107460D02*
X252790Y199050D01*
X163807D02*
X299050Y63807D01*
X203318Y50583D02*
X224766Y72031D01*
X203318Y42097D02*
X299050Y137829D01*
X186137Y78656D02*
X299050Y191570D01*
X186848Y76539D02*
X299050Y188741D01*
X162224Y91514D02*
X203486Y132775D01*
X162362Y88823D02*
X206177Y132638D01*
X160897Y93015D02*
X201985Y134103D01*
X125884Y166262D02*
X216365Y75782D01*
X201881Y60460D02*
X216452Y75031D01*
X186756Y77106D02*
X204404Y59458D01*
X166636Y199050D02*
X201238Y164448D01*
X169464Y199050D02*
X201238Y167276D01*
X141702Y141702D02*
X199050Y199050D01*
X140288Y143116D02*
X196222Y199050D01*
X138351D02*
X201438Y135963D01*
X201238Y162238D02*
Y169762D01*
X161327Y124558D02*
X201238Y164468D01*
X141702Y141702D02*
X199050Y199050D01*
X158963Y125021D02*
X201238Y167297D01*
X138874Y144530D02*
X193393Y199050D01*
X136045Y147359D02*
X187736Y199050D01*
X137459Y145945D02*
X190565Y199050D01*
X161200Y106300D02*
Y118370D01*
X157800Y106326D02*
Y118370D01*
X161092Y102770D02*
X182843Y81020D01*
X161008Y100026D02*
X180146Y80888D01*
X160880Y95826D02*
X201461Y136407D01*
X160924Y97281D02*
X178344Y79862D01*
X160840Y94537D02*
X177119Y78258D01*
X162562Y89986D02*
X176596Y75952D01*
X157397Y93181D02*
X157800Y106326D01*
X140883Y89972D02*
X157800Y106888D01*
X137825Y92570D02*
X157800Y112545D01*
X139721Y91637D02*
X157800Y109717D01*
X160795Y93077D02*
X161199Y106246D01*
X140946Y87206D02*
X157728Y103988D01*
X135800Y69204D02*
X155584Y88989D01*
X127560Y155844D02*
X170766Y199050D01*
X126146Y157258D02*
X167937Y199050D01*
X128974Y154430D02*
X173594Y199050D01*
X125790Y162559D02*
X162280Y199050D01*
X124732Y158673D02*
X165109Y199050D01*
X133217Y150187D02*
X182079Y199050D01*
X134631Y148773D02*
X184908Y199050D01*
X130388Y153016D02*
X176423Y199050D01*
X131803Y151602D02*
X179251Y199050D01*
X130717Y125060D02*
X142126Y136469D01*
X127539Y124711D02*
X140712Y137884D01*
X125002Y167429D02*
X156624Y199050D01*
X126110Y165708D02*
X159452Y199050D01*
X132392Y123907D02*
X143541Y135055D01*
X133238Y121924D02*
X144955Y133641D01*
X133201Y122176D02*
X157540Y97837D01*
X132819Y119729D02*
X157455Y95093D01*
X131442Y118278D02*
X156867Y92853D01*
X130434Y90836D02*
X157800Y118202D01*
X131147Y88721D02*
X157800Y115374D01*
X124400Y67831D02*
X157639Y101070D01*
X124400Y65003D02*
X157549Y98152D01*
X124400Y62174D02*
X157460Y95234D01*
X126572Y92631D02*
X155979Y122037D01*
X129136Y117755D02*
X155658Y91234D01*
X128941Y92171D02*
X156442Y119673D01*
X127827Y62773D02*
X155461Y90407D01*
X161658Y62663D02*
X177006Y78010D01*
X138700Y67296D02*
X157989Y86584D01*
X138700Y65161D02*
X160177Y86638D01*
X147834Y76430D02*
X161246Y63018D01*
X141144Y88778D02*
X148258Y81663D01*
X140623Y86470D02*
X146844Y80248D01*
X139253Y85011D02*
X145430Y78834D01*
X137088Y84348D02*
X144016Y77420D01*
X146420Y75016D02*
X157853Y63583D01*
X145006Y73602D02*
X156151Y62457D01*
X135300Y62289D02*
Y68000D01*
X138700Y62289D02*
Y67296D01*
X161853Y87867D02*
X199918Y49802D01*
X160233Y86658D02*
X199918Y46974D01*
X157734Y86330D02*
X199918Y44146D01*
X156319Y84915D02*
X199918Y41317D01*
X186624Y74410D02*
X200671Y60363D01*
X185598Y72608D02*
X198786Y59420D01*
X183994Y71382D02*
X197598Y57779D01*
X181688Y70860D02*
X197371Y55177D01*
X162666Y60843D02*
X176717Y74893D01*
X143592Y72187D02*
X155272Y60507D01*
X131045Y87562D02*
X142602Y76006D01*
X130073Y85706D02*
X141187Y74592D01*
X128371Y84580D02*
X139773Y73177D01*
X125513Y84609D02*
X138359Y71763D01*
X124400Y70660D02*
X138294Y84554D01*
X124400Y82894D02*
X136945Y70349D01*
X124400Y80065D02*
X135561Y68905D01*
X124400Y79145D02*
X132930Y87675D01*
X124400Y83496D02*
X125523Y84619D01*
X124400Y76317D02*
X133863Y85779D01*
X124400Y74408D02*
X135300Y63508D01*
X124400Y65923D02*
X127499Y62824D01*
X124400Y73488D02*
X135528Y84617D01*
X124400Y77237D02*
X135300Y66337D01*
X129753Y61871D02*
X135300Y67418D01*
X130978Y60267D02*
X135300Y64589D01*
X124400Y71580D02*
X134313Y61667D01*
X124400Y68752D02*
X133134Y60017D01*
X124400Y48032D02*
X133198Y56830D01*
X124400Y45204D02*
X134432Y55236D01*
X124400Y42375D02*
X136413Y54389D01*
X131287Y57748D02*
X132948Y59409D01*
X124400Y61991D02*
Y83496D01*
X131324Y58999D02*
X133025Y57298D01*
X124400Y50861D02*
X127752Y54213D01*
X207104Y133126D02*
X299050Y41180D01*
X222329Y41309D02*
X299050Y118031D01*
X218803Y40612D02*
X299050Y120859D01*
X203318Y39269D02*
X299050Y135001D01*
X204963Y132438D02*
X299050Y38351D01*
X226561Y76899D02*
X299050Y4410D01*
X226346Y74286D02*
X299050Y1582D01*
X224357Y40509D02*
X299050Y115202D01*
X225772Y39095D02*
X299050Y112374D01*
X226572Y37068D02*
X299050Y109545D01*
X227724Y1450D02*
X299050Y72776D01*
X203318Y33612D02*
X299050Y129344D01*
X225881Y33548D02*
X299050Y106717D01*
X205863Y55171D02*
X219910Y41124D01*
X241867Y1450D02*
X299050Y58634D01*
X204958Y58905D02*
X222606Y41256D01*
X204919Y53286D02*
X218108Y40098D01*
X230553Y1450D02*
X299050Y69947D01*
X216411Y1450D02*
X299050Y84089D01*
Y1450D02*
Y199050D01*
X210754Y1450D02*
X299050Y89746D01*
X213582Y1450D02*
X299050Y86918D01*
X239038Y1450D02*
X299050Y61462D01*
X244695Y1450D02*
X299050Y55805D01*
X233381Y1450D02*
X299050Y67119D01*
X236210Y1450D02*
X299050Y64290D01*
X219239Y1450D02*
X299050Y81261D01*
X222067Y1450D02*
X299050Y78433D01*
X205097Y1450D02*
X299050Y95403D01*
X207925Y1450D02*
X299050Y92575D01*
X224896Y1450D02*
X299050Y75604D01*
X225283Y72520D02*
X296354Y1450D01*
X221282Y70864D02*
X290697Y1450D01*
X223646Y71329D02*
X293525Y1450D01*
X132694Y199050D02*
X299050Y32694D01*
X135523Y199050D02*
X299050Y35523D01*
X133513Y11891D02*
X299050Y177427D01*
X129866Y199050D02*
X299050Y29866D01*
X127038Y199050D02*
X299050Y27038D01*
X203318Y36440D02*
X299050Y132173D01*
X203299Y30765D02*
X299050Y126516D01*
X134927Y10477D02*
X299050Y174599D01*
X136641Y9362D02*
X299050Y171771D01*
X130685Y14719D02*
X299050Y183084D01*
X132099Y13305D02*
X299050Y180256D01*
X124400Y39547D02*
X283903Y199050D01*
X129271Y16134D02*
X299050Y185913D01*
X179416Y40823D02*
X216913Y78320D01*
X154905Y83501D02*
X199918Y38489D01*
X153491Y82087D02*
X199918Y35660D01*
X152077Y80673D02*
X199918Y32832D01*
X140726Y7790D02*
X299050Y166114D01*
X142965Y7200D02*
X299050Y163285D01*
X139186Y9078D02*
X299050Y168942D01*
X126089Y163229D02*
X287868Y1450D01*
X199440D02*
X299050Y101060D01*
X202269Y1450D02*
X299050Y98232D01*
X176813Y1450D02*
X299050Y123687D01*
X196612Y1450D02*
X299050Y103888D01*
X161934Y118899D02*
X279383Y1450D01*
X162969Y120692D02*
X282211Y1450D01*
X124958Y161532D02*
X285040Y1450D01*
X161200Y116805D02*
X276554Y1450D01*
X161200Y113976D02*
X273726Y1450D01*
X161200Y111148D02*
X270898Y1450D01*
X161177Y105514D02*
X265241Y1450D01*
X161200Y108319D02*
X268069Y1450D01*
X272979D02*
X299050Y27521D01*
X270151Y1450D02*
X299050Y30349D01*
X275808Y1450D02*
X299050Y24692D01*
X261666Y1450D02*
X299050Y38834D01*
X267322Y1450D02*
X299050Y33178D01*
X289950Y1450D02*
X299050Y10550D01*
X298435Y1450D02*
X299050Y2065D01*
X278636Y1450D02*
X299050Y21864D01*
X281465Y1450D02*
X299050Y19035D01*
X292778Y1450D02*
X299050Y7722D01*
X295607Y1450D02*
X299050Y4893D01*
X264494Y1450D02*
X299050Y36006D01*
X253180Y1450D02*
X299050Y47320D01*
X256009Y1450D02*
X299050Y44491D01*
X247523Y1450D02*
X299050Y52977D01*
X250352Y1450D02*
X299050Y50148D01*
X284293Y1450D02*
X299050Y16207D01*
X287121Y1450D02*
X299050Y13379D01*
X226520Y37343D02*
X262412Y1450D01*
X258837D02*
X299050Y41663D01*
X203318Y37917D02*
X239785Y1450D01*
X203318Y35089D02*
X236956Y1450D01*
X203318Y43574D02*
X245442Y1450D01*
X203318Y40745D02*
X242613Y1450D01*
X225362Y32844D02*
X256755Y1450D01*
X226388Y34646D02*
X259584Y1450D01*
X221452Y31096D02*
X251099Y1450D01*
X223758Y31619D02*
X253927Y1450D01*
X203318Y52059D02*
X216882Y38495D01*
X203318Y49231D02*
X216360Y36189D01*
X203318Y31018D02*
Y52115D01*
Y32260D02*
X234128Y1450D01*
X200048Y27044D02*
X225643Y1450D01*
X197220Y24216D02*
X219986Y1450D01*
X198634Y25630D02*
X222814Y1450D01*
X186830Y36923D02*
X199918Y50011D01*
Y31722D02*
Y52115D01*
X185705Y32970D02*
X199918Y47183D01*
X171045Y12653D02*
X199918Y41526D01*
X180849Y12653D02*
X199918Y31722D01*
X182757Y9753D02*
X202818Y29814D01*
X173873Y12653D02*
X199918Y38697D01*
X179530Y12653D02*
X199918Y33040D01*
X193783Y1450D02*
X224188Y31855D01*
X203318Y46402D02*
X248270Y1450D01*
X185298D02*
X217227Y33379D01*
X188126Y1450D02*
X218641Y31965D01*
X201463Y28458D02*
X228471Y1450D01*
X202875Y29874D02*
X231300Y1450D01*
X190955D02*
X220669Y31164D01*
X195806Y22802D02*
X217157Y1450D01*
X192977Y19973D02*
X211501Y1450D01*
X194392Y21387D02*
X214329Y1450D01*
X179641D02*
X217124Y38933D01*
X182469Y1450D02*
X216427Y35408D01*
X190149Y17145D02*
X205844Y1450D01*
X191563Y18559D02*
X208672Y1450D01*
X187320Y14316D02*
X200187Y1450D01*
X188735Y15731D02*
X203015Y1450D01*
X184692Y40442D02*
X197982Y53732D01*
X182706Y41284D02*
X197276Y55855D01*
X186073Y38995D02*
X199435Y52356D01*
X150663Y79259D02*
X199058Y30863D01*
X149249Y77844D02*
X197644Y29449D01*
X186703Y37562D02*
X196230Y28034D01*
X186663Y34772D02*
X194816Y26620D01*
X185675Y32933D02*
X193402Y25206D01*
X162018Y62246D02*
X183062Y41203D01*
X162583Y58853D02*
X180272Y41164D01*
X161457Y57151D02*
X178433Y40174D01*
X159507Y56272D02*
X177174Y38605D01*
X184105Y31674D02*
X191987Y23792D01*
X176702Y12653D02*
X199918Y35869D01*
X165388Y12653D02*
X185002Y32267D01*
X168217Y12653D02*
X199918Y44354D01*
X181853Y31097D02*
X190573Y22377D01*
X185906Y12902D02*
X197358Y1450D01*
X158972Y12653D02*
X180849D01*
X162560D02*
X181049Y31142D01*
X157781Y13531D02*
X177531Y33281D01*
X159731Y12653D02*
X178977Y31899D01*
X154952Y13531D02*
X176688Y35267D01*
X145793Y7200D02*
X177149Y38556D01*
X158972Y12653D02*
Y13531D01*
X153028Y8375D02*
Y13531D01*
X158972D01*
X148169Y6747D02*
X153028Y11607D01*
X141289Y36637D02*
X177600Y72948D01*
X142177Y70773D02*
X176597Y36353D01*
X140802Y33322D02*
X179080Y71600D01*
X140763Y69359D02*
X189159Y20963D01*
X139349Y67945D02*
X187745Y19549D01*
X140208Y38384D02*
X158157Y56334D01*
X138700Y65765D02*
X186331Y18135D01*
X138357Y39362D02*
X156337Y57342D01*
X124400Y28233D02*
X155332Y59165D01*
X124400Y43296D02*
X133959Y33737D01*
X124400Y46124D02*
X133754Y36770D01*
X124400Y21004D02*
Y55009D01*
X125028Y20376D02*
X136363Y31711D01*
X126442Y18962D02*
X139678Y32198D01*
X124400Y25405D02*
X133638Y34643D01*
X124400Y22577D02*
X134616Y32792D01*
X138700Y62937D02*
X184916Y16721D01*
X141080Y57728D02*
X183502Y15306D01*
X127857Y17548D02*
X181197Y70888D01*
X130909Y56586D02*
X174842Y12653D01*
X140167Y55813D02*
X182088Y13892D01*
X138517Y54634D02*
X180499Y12653D01*
X129633Y55034D02*
X172013Y12653D01*
X135798Y54525D02*
X177670Y12653D01*
X127643Y54195D02*
X169185Y12653D01*
X141392Y34789D02*
X163528Y12653D01*
X124400Y54609D02*
X166357Y12653D01*
X124400Y34810D02*
X152463Y6747D01*
X138770Y31754D02*
X156993Y13531D01*
X140468Y32885D02*
X160700Y12653D01*
X135737Y31959D02*
X154165Y13531D01*
X124400Y23497D02*
X138595Y9301D01*
X183078Y10074D02*
X191702Y1450D01*
X158972Y9253D02*
X181553D01*
X173984Y1450D02*
X181806Y9272D01*
X171156Y1450D02*
X178959Y9253D01*
X172585D02*
X180388Y1450D01*
X168327D02*
X176130Y9253D01*
X169757D02*
X177559Y1450D01*
X158972Y8375D02*
Y9253D01*
Y3408D02*
X164816Y9253D01*
X158282Y8375D02*
X158972Y9065D01*
Y6236D02*
X161988Y9253D01*
X157532Y7625D02*
X158282Y8375D01*
X158972Y2469D02*
Y7625D01*
X154703D02*
X155453Y8375D01*
X156492D02*
X157242Y7625D01*
X181070Y9253D02*
X188873Y1450D01*
X184492Y11488D02*
X194530Y1450D01*
X175414Y9253D02*
X183216Y1450D01*
X178242Y9253D02*
X186045Y1450D01*
X165499D02*
X173302Y9253D01*
X166928D02*
X174731Y1450D01*
X162671D02*
X170473Y9253D01*
X164100D02*
X171903Y1450D01*
X159842D02*
X167645Y9253D01*
X161271D02*
X169074Y1450D01*
X158972Y8724D02*
X166246Y1450D01*
X158972Y5896D02*
X163417Y1450D01*
X157014D02*
X158033Y2469D01*
X158972Y3067D02*
X160589Y1450D01*
X154185D02*
X155204Y2469D01*
X156741D02*
X157760Y1450D01*
X153664Y8375D02*
X154414Y7625D01*
X153028Y9010D02*
X153664Y8375D01*
X153028Y6747D02*
Y7625D01*
Y8375D02*
X158972D01*
X150997Y6747D02*
X153028Y8778D01*
Y7625D02*
X158972D01*
X153028Y2469D02*
Y3347D01*
X146953D02*
X153028D01*
Y2469D02*
X158972D01*
X141072Y7200D02*
X146500D01*
X147655Y6747D02*
X153028D01*
X141072Y3800D02*
X145798D01*
X145700Y1450D02*
X147597Y3347D01*
X147378D02*
X149275Y1450D01*
X142871D02*
X145221Y3800D01*
X144097D02*
X146447Y1450D01*
X151357D02*
X153028Y3122D01*
X153913Y2469D02*
X154932Y1450D01*
X148528D02*
X150426Y3347D01*
X150206D02*
X152103Y1450D01*
X131558D02*
X133922Y3814D01*
X125901Y1450D02*
X132523Y8072D01*
X128729Y1450D02*
X133639Y6359D01*
X140043Y1450D02*
X142393Y3800D01*
X141268D02*
X143618Y1450D01*
X134386D02*
X135210Y2274D01*
X139891Y2349D02*
X140790Y1450D01*
X123123Y168378D02*
X153795Y199050D01*
X115932Y166844D02*
X148138Y199050D01*
X116649Y164733D02*
X150967Y199050D01*
X112064Y168633D02*
X142481Y199050D01*
X114437Y168177D02*
X145310Y199050D01*
X106230Y168456D02*
X136825Y199050D01*
X106613Y166010D02*
X139653Y199050D01*
X106613Y165734D02*
X108378Y163970D01*
X124043Y160812D02*
X124283Y161053D01*
X116644Y164189D02*
X120643Y160190D01*
X114382Y160794D02*
X157800Y117376D01*
X115898Y162107D02*
X155977Y122027D01*
X106613Y162906D02*
X157800Y111719D01*
X106147Y160544D02*
X157800Y108891D01*
X104410Y199050D02*
X222399Y81061D01*
X124043Y159619D02*
X158692Y124969D01*
X124043Y159362D02*
X158489Y124916D01*
X121142Y157453D02*
X156084Y122511D01*
X111969Y160378D02*
X157800Y114548D01*
X124043Y159362D02*
Y160928D01*
X120643Y158657D02*
Y160928D01*
X104357Y155269D02*
X110156Y161068D01*
X104357Y143955D02*
X120643Y160241D01*
X104357Y138299D02*
X122327Y156269D01*
X104357Y132642D02*
X125156Y153440D01*
X103402Y168456D02*
X133996Y199050D01*
X100574Y168456D02*
X131168Y199050D01*
X93097D02*
X124105Y168042D01*
X1450Y199050D02*
X299050D01*
X87440D02*
X119375Y167115D01*
X104357Y141127D02*
X120935Y157704D01*
X104357Y135470D02*
X123742Y154854D01*
X90268Y199050D02*
X121072Y168246D01*
X104357Y146784D02*
X119414Y161840D01*
X81783Y199050D02*
X112189Y168644D01*
X84611Y199050D02*
X118451Y165210D01*
X76126Y199050D02*
X108794Y166382D01*
X22386Y199050D02*
X115300Y106136D01*
X104357Y158098D02*
X108823Y162563D01*
X104357Y152441D02*
X112267Y160351D01*
X78954Y199050D02*
X110107Y167898D01*
X104357Y149612D02*
X118465Y163719D01*
X101582Y199050D02*
X219786Y80846D01*
X98753Y199050D02*
X218020Y79783D01*
X11072Y199050D02*
X115300Y94822D01*
X1450Y80646D02*
X119854Y199050D01*
X104357Y156676D02*
X157708Y103326D01*
X104357Y153848D02*
X157624Y100582D01*
X104357Y159505D02*
X157792Y106070D01*
X1450Y83474D02*
X117025Y199050D01*
X19557D02*
X115300Y103307D01*
X16729Y199050D02*
X115300Y100479D01*
X13901Y199050D02*
X115300Y97651D01*
X8244Y199050D02*
X115101Y92193D01*
X34562Y169903D02*
X113592Y90873D01*
X1450Y86303D02*
X114197Y199050D01*
X1450Y91960D02*
X108540Y199050D01*
X1450Y89131D02*
X111369Y199050D01*
X118700Y98901D02*
X149197Y129398D01*
X118700Y101729D02*
X147783Y130813D01*
X118700Y96073D02*
X150612Y127984D01*
X114952Y114952D02*
X139298Y139298D01*
X118700Y104558D02*
X146369Y132227D01*
X118700Y107386D02*
X129076Y117762D01*
X118700Y108393D02*
X134970Y92123D01*
X118700Y110215D02*
X127094Y118608D01*
X118700Y93244D02*
X152026Y126570D01*
X116366Y113538D02*
X126289Y123461D01*
X117780Y112124D02*
X125940Y120283D01*
X118700Y99907D02*
X126062Y92545D01*
X118700Y92289D02*
Y110500D01*
X115300Y92289D02*
Y109796D01*
X118700Y97079D02*
X124206Y91573D01*
X119827Y91542D02*
X153440Y125156D01*
X120936Y89824D02*
X154854Y123742D01*
X118700Y105564D02*
X133511Y90753D01*
X118700Y102736D02*
X132848Y88588D01*
X124400Y81974D02*
X126779Y84353D01*
X121123Y88999D02*
X123109Y87013D01*
X121500Y85404D02*
X123119Y87023D01*
X120826Y86884D02*
X122869Y88928D01*
X120693Y86601D02*
X121695Y85599D01*
X118700Y94251D02*
X123080Y89871D01*
X119373Y85092D02*
X121000Y83465D01*
X117280Y84357D02*
X121000Y80637D01*
X108557Y122699D02*
X132227Y146369D01*
X107770Y124740D02*
X130813Y147783D01*
X109295Y120609D02*
X133641Y144955D01*
X106092Y125891D02*
X129398Y149197D01*
X104357Y151020D02*
X130176Y125201D01*
X113538Y116366D02*
X137884Y140712D01*
X114952Y114952D02*
X139298Y139298D01*
X110709Y119195D02*
X135055Y143541D01*
X112124Y117780D02*
X136469Y142126D01*
X104357Y148191D02*
X127729Y124819D01*
X104357Y145363D02*
X126278Y123442D01*
X104357Y129813D02*
X126570Y152026D01*
X104357Y126985D02*
X127984Y150612D01*
X108416Y121489D02*
X118200Y111704D01*
X104357Y142534D02*
X125755Y121136D01*
X104357Y134049D02*
X152501Y85905D01*
X104357Y131221D02*
X151087Y84491D01*
X104357Y139706D02*
X155330Y88734D01*
X104357Y136878D02*
X153915Y87319D01*
X114095Y91467D02*
X115300Y92673D01*
X108420Y121502D02*
X137278Y92643D01*
X104357Y128392D02*
X149673Y83077D01*
X106011Y119084D02*
X115300Y109796D01*
X106790Y92647D02*
X115300Y101158D01*
X105313Y118951D02*
X115300Y108964D01*
X78741Y122896D02*
X112857Y88780D01*
X110513Y90714D02*
X115300Y95501D01*
X111153Y88525D02*
X114033Y91405D01*
X109070Y92100D02*
X115300Y98329D01*
X64812Y199050D02*
X98702Y165161D01*
X67641Y199050D02*
X98702Y167989D01*
X61984Y199050D02*
X98702Y162332D01*
X34562Y167498D02*
X66114Y199050D01*
X34562Y164670D02*
X68942Y199050D01*
X70469D02*
X101063Y168456D01*
X73298Y199050D02*
X103892Y168456D01*
X59155Y199050D02*
X100957Y157248D01*
X56327Y199050D02*
X100957Y154420D01*
X32969Y171562D02*
X60457Y199050D01*
X34562Y170327D02*
X63285Y199050D01*
X5415D02*
X32903Y171562D01*
X30141D02*
X57629Y199050D01*
X27438Y164438D02*
Y171562D01*
X34562Y164438D02*
Y171562D01*
X2587Y199050D02*
X30075Y171562D01*
X27438D02*
X34562D01*
X53499Y199050D02*
X100957Y151591D01*
X50670Y199050D02*
X100957Y148763D01*
X39356Y199050D02*
X100957Y137449D01*
X33700Y199050D02*
X100957Y131792D01*
X47842Y199050D02*
X100957Y145934D01*
X45013Y199050D02*
X100957Y143106D01*
X42185Y199050D02*
X100957Y140278D01*
X25214Y199050D02*
X101452Y122813D01*
X33409Y140890D02*
X91570Y199050D01*
X34561Y139213D02*
X94398Y199050D01*
X1450Y154185D02*
X46315Y199050D01*
X31429Y141738D02*
X88741Y199050D01*
X34203Y136027D02*
X97227Y199050D01*
X36528D02*
X100957Y134621D01*
X30871Y199050D02*
X100957Y128964D01*
X28043Y199050D02*
X100957Y126135D01*
X1450Y162671D02*
X37830Y199050D01*
X1450Y171156D02*
X29344Y199050D01*
X1450Y159842D02*
X40658Y199050D01*
X1450Y168327D02*
X32173Y199050D01*
X1450Y165499D02*
X35001Y199050D01*
X1450Y194530D02*
X27438Y168542D01*
X1450Y191702D02*
X27438Y165714D01*
X1450Y173984D02*
X26516Y199050D01*
X1450Y197358D02*
X27438Y171371D01*
X1450Y190955D02*
X9545Y199050D01*
X1450Y188126D02*
X12374Y199050D01*
X1450Y196612D02*
X3888Y199050D01*
X1450Y193783D02*
X6717Y199050D01*
X1450Y179641D02*
X20859Y199050D01*
X1450Y176813D02*
X23687Y199050D01*
X1450Y185298D02*
X15202Y199050D01*
X1450Y182469D02*
X18031Y199050D01*
X1450Y114587D02*
X85913Y199050D01*
X1450Y94788D02*
X105712Y199050D01*
X1450Y100445D02*
X100055Y199050D01*
X1450Y97617D02*
X102883Y199050D01*
X1450Y174731D02*
X77685Y98496D01*
X1450Y188873D02*
X103025Y87298D01*
X1450Y120244D02*
X80256Y199050D01*
X1450Y117416D02*
X83084Y199050D01*
X1450Y125901D02*
X74599Y199050D01*
X1450Y123073D02*
X77428Y199050D01*
X1450Y145700D02*
X54800Y199050D01*
X1450Y128729D02*
X71771Y199050D01*
X1450Y148528D02*
X51972Y199050D01*
X1450Y171903D02*
X31646Y141706D01*
X1450Y157014D02*
X43486Y199050D01*
X1450Y151357D02*
X49143Y199050D01*
X106613Y163182D02*
X108367Y164936D01*
X106613Y160544D02*
Y168456D01*
X104357Y126004D02*
Y160544D01*
X98702Y168456D02*
X106613D01*
X104357Y160544D02*
X106613D01*
X98702D02*
X100957D01*
X100490D02*
X100957Y160076D01*
X98702Y160544D02*
Y168456D01*
X100957Y124843D02*
Y160544D01*
X75336Y126247D02*
X100957Y151869D01*
X77353Y125436D02*
X100957Y149041D01*
X78534Y123789D02*
X100957Y146212D01*
X78453Y98252D02*
X101609Y121408D01*
X75682Y98309D02*
X101255Y123882D01*
X78233Y120576D02*
X106228Y92580D01*
X79980Y96951D02*
X102760Y119730D01*
X80549Y94691D02*
X104801Y118943D01*
X76789Y119191D02*
X104313Y91667D01*
X74359Y118793D02*
X103134Y90017D01*
X78338Y120764D02*
X100957Y143384D01*
X47771Y98682D02*
X71253Y122164D01*
X50651Y95906D02*
X73711Y118966D01*
X49618Y97702D02*
X72064Y120147D01*
X34562Y167075D02*
X75396Y126241D01*
X34330Y164438D02*
X34562Y164670D01*
X34371Y164438D02*
X73076Y125733D01*
X27438Y164438D02*
X34562D01*
X1450Y134386D02*
X31502Y164438D01*
X1450Y131558D02*
X34330Y164438D01*
X1450Y140043D02*
X27438Y166031D01*
X1450Y166246D02*
X27769Y139927D01*
X1450Y142871D02*
X27438Y168859D01*
X1450Y169074D02*
X29213Y141311D01*
X1450Y163417D02*
X27258Y137609D01*
X1450Y137215D02*
X28673Y164438D01*
X34706Y138646D02*
X75250Y98103D01*
X34311Y136213D02*
X73854Y96670D01*
X31542Y164438D02*
X71691Y124289D01*
X28714Y164438D02*
X71293Y121859D01*
X32927Y134769D02*
X73539Y94157D01*
X1450Y111759D02*
X27262Y137571D01*
X1450Y137961D02*
X43382Y96030D01*
X1450Y143618D02*
X46361Y98707D01*
X1450Y140790D02*
X44462Y97777D01*
X1450Y106102D02*
X29787Y134439D01*
X1450Y108930D02*
X28110Y135591D01*
X1450Y103273D02*
X32973Y134797D01*
X110167Y85813D02*
X121000Y74980D01*
X111080Y87728D02*
X121000Y77808D01*
X108517Y84634D02*
X121000Y72152D01*
X105798Y84525D02*
X121000Y69323D01*
X107908Y62653D02*
X121000Y75745D01*
X124400Y63095D02*
X125086Y62409D01*
X118807Y62239D02*
X121000Y64431D01*
X110736Y62653D02*
X121000Y72917D01*
X116340Y62600D02*
X121000Y67260D01*
X120351Y60953D02*
X121000Y61603D01*
Y59616D02*
Y84200D01*
X111153Y60241D02*
X121000Y70088D01*
X111153Y62200D02*
X113193Y60159D01*
X120257Y55924D02*
X121000Y55181D01*
X111153Y59371D02*
X112952Y57572D01*
X111153Y57413D02*
X112900Y59160D01*
X124400Y31062D02*
X292388Y199050D01*
X112895D02*
X299050Y12895D01*
X110067Y199050D02*
X299050Y10067D01*
X107238Y199050D02*
X299050Y7238D01*
X124209Y199050D02*
X299050Y24209D01*
X121381Y199050D02*
X299050Y21381D01*
X118552Y199050D02*
X299050Y18552D01*
X115724Y199050D02*
X299050Y15724D01*
X124400Y36719D02*
X286731Y199050D01*
X124400Y33890D02*
X289560Y199050D01*
X118700Y53646D02*
X121000Y55946D01*
Y20300D02*
Y57384D01*
X111153Y54584D02*
X113261Y56693D01*
X111153Y56543D02*
X115300Y52396D01*
X95925Y199050D02*
X216829Y78146D01*
X1450Y77818D02*
X122682Y199050D01*
X1450Y74989D02*
X125511Y199050D01*
X1450Y72161D02*
X128339Y199050D01*
X1450Y186045D02*
X121000Y66495D01*
X105079Y62653D02*
X121000Y78574D01*
X49777Y92462D02*
X121000Y21240D01*
X1450Y183216D02*
X121000Y63666D01*
X1450Y180388D02*
X121000Y60838D01*
X50546Y50546D02*
X112548Y112548D01*
X1450Y152103D02*
X114325Y39229D01*
X1450Y177559D02*
X116400Y62609D01*
X1450Y154932D02*
X115300Y41082D01*
X80496Y95685D02*
X114424Y61757D01*
X50546Y44890D02*
X115300Y109643D01*
X50546Y50546D02*
X112548Y112548D01*
X50546Y47718D02*
X113962Y111134D01*
X1450Y129476D02*
X129476Y1450D01*
X1450Y126648D02*
X126648Y1450D01*
X1450Y135133D02*
X135133Y1450D01*
X1450Y132305D02*
X132305Y1450D01*
X48030Y91382D02*
X133560Y5852D01*
X41048Y1450D02*
X121000Y81402D01*
X1450Y123819D02*
X123819Y1450D01*
X38220D02*
X121000Y84231D01*
X12764Y1450D02*
X115300Y103986D01*
X26906Y1450D02*
X112967Y87511D01*
X1450Y120991D02*
X112985Y9456D01*
X9935Y1450D02*
X115300Y106815D01*
X35391Y1450D02*
X118615Y84674D01*
X60847Y1450D02*
X114547Y55150D01*
X29734Y1450D02*
X113958Y85673D01*
X32563Y1450D02*
X115676Y84564D01*
X124400Y53689D02*
X125233Y54522D01*
X118700Y54653D02*
X121000Y52353D01*
X124400Y51781D02*
X136789Y39392D01*
X118700Y50818D02*
X121000Y53118D01*
X118700Y51824D02*
X121000Y49524D01*
X118700Y47989D02*
X121000Y50289D01*
X124400Y48953D02*
X134885Y38468D01*
X118700Y48996D02*
X121000Y46696D01*
X118700Y45161D02*
X121000Y47461D01*
X118700Y42332D02*
X121000Y44632D01*
X118700Y43339D02*
X121000Y41039D01*
X118700Y46167D02*
X121000Y43867D01*
X118700Y39500D02*
Y54711D01*
Y39504D02*
X121000Y41804D01*
X118700Y40510D02*
X121000Y38210D01*
X124400Y29154D02*
X146353Y7200D01*
X124400Y31982D02*
X149635Y6747D01*
X124400Y40467D02*
X153028Y11839D01*
X124400Y37639D02*
X153028Y9010D01*
X124400Y21004D02*
X136176Y9228D01*
X124400Y26325D02*
X143525Y7200D01*
X121500Y19096D02*
X133772Y6824D01*
X123073Y1450D02*
X131109Y9487D01*
X118143Y38239D02*
X121000Y35382D01*
X116908Y34883D02*
X121000Y38976D01*
X117416Y1450D02*
X128281Y12315D01*
X120244Y1450D02*
X129695Y10901D01*
X116823Y6515D02*
X125452Y15144D01*
X116956Y5485D02*
X120991Y1450D01*
X116728Y36824D02*
X118200Y38296D01*
X116729Y36825D02*
X121000Y32554D01*
X116679Y34046D02*
X121000Y29725D01*
X115479Y32417D02*
X121000Y26897D01*
X113984Y9332D02*
X122624Y17972D01*
X115787Y8307D02*
X124038Y16558D01*
X113493Y31575D02*
X121000Y24068D01*
X100445Y1450D02*
X121000Y22005D01*
X110520Y54347D02*
X115300Y49567D01*
Y40204D02*
Y54711D01*
X107692Y54347D02*
X115300Y46739D01*
X104863Y54347D02*
X115300Y43910D01*
X112995Y39456D02*
X115300Y41761D01*
X114324Y39228D02*
X115300Y40204D01*
X91960Y1450D02*
X121000Y30490D01*
X94788Y1450D02*
X121000Y27662D01*
X86303Y1450D02*
X121000Y36147D01*
X89131Y1450D02*
X121000Y33319D01*
X103273Y1450D02*
X121245Y19421D01*
X114587Y1450D02*
X126866Y13729D01*
X1450Y1450D02*
X299050D01*
X97617D02*
X121000Y24833D01*
X69332Y1450D02*
X115300Y47418D01*
X72161Y1450D02*
X115300Y44589D01*
X63675Y1450D02*
X115300Y53075D01*
X66504Y1450D02*
X115300Y50246D01*
X114804Y1980D02*
X115334Y1450D01*
X116298Y3315D02*
X118162Y1450D01*
X83474D02*
X113617Y31593D01*
X111759Y1450D02*
X111985Y1677D01*
X80103Y93250D02*
X110700Y62653D01*
X78670Y91854D02*
X107871Y62653D01*
X50697Y59182D02*
X108305Y116791D01*
X30609Y134258D02*
X102847Y62020D01*
X49897Y61210D02*
X106891Y118205D01*
X110700Y62653D02*
X111153Y62200D01*
Y54347D02*
Y62653D01*
X76157Y91539D02*
X105043Y62653D01*
X102847D02*
X111153D01*
X46268Y63239D02*
X75049Y92020D01*
X1450Y60847D02*
X100957Y160354D01*
X1450Y63675D02*
X98702Y160927D01*
X1450Y160589D02*
X102847Y59192D01*
X48433Y62575D02*
X77309Y91451D01*
X102847Y54347D02*
Y62653D01*
X47390Y53047D02*
X109720Y115376D01*
X50218Y53047D02*
X111134Y113962D01*
X1450Y118162D02*
X110815Y8798D01*
X1450Y115334D02*
X109480Y7304D01*
X50708Y94361D02*
X109075Y35993D01*
X49847Y61280D02*
X109677Y1450D01*
X21249D02*
X104786Y84987D01*
X24077Y1450D02*
X106975Y84347D01*
X1450Y32563D02*
X100957Y132070D01*
X1450Y29734D02*
X100957Y129242D01*
X1450Y35391D02*
X100957Y134899D01*
X1450Y1450D02*
Y199050D01*
X15592Y1450D02*
X102853Y88710D01*
X18421Y1450D02*
X103400Y86430D01*
X1450Y43876D02*
X76736Y119162D01*
X1450Y26906D02*
X100957Y126413D01*
X1450Y157760D02*
X102847Y56363D01*
X1450Y58019D02*
X100957Y157526D01*
X1450Y55190D02*
X100957Y154698D01*
X1450Y69332D02*
X98702Y166584D01*
X1450Y66504D02*
X98702Y163755D01*
X1450Y49533D02*
X44298Y92382D01*
X1450Y46705D02*
X46094Y91349D01*
X1450Y106849D02*
X45132Y63166D01*
X1450Y109677D02*
X48780Y62347D01*
X1450Y98363D02*
X41254Y58560D01*
X1450Y95535D02*
X43938Y53047D01*
X1450Y104020D02*
X43164Y62306D01*
X1450Y101192D02*
X41846Y60796D01*
X1450Y89878D02*
X41453Y49874D01*
X1450Y87050D02*
X41453Y47046D01*
X1450Y92707D02*
X41453Y52703D01*
X1450Y52362D02*
X43318Y94229D01*
X1450Y41048D02*
X100957Y140555D01*
X1450Y38220D02*
X100957Y137727D01*
X1450Y149275D02*
X111546Y39179D01*
X1450Y146447D02*
X109917Y37979D01*
X1450Y78564D02*
X78564Y1450D01*
X1450Y75736D02*
X75736Y1450D01*
X1450Y112505D02*
X109096Y4859D01*
X1450Y81393D02*
X81393Y1450D01*
X1450Y84221D02*
X41453Y44218D01*
X1450Y72908D02*
X72908Y1450D01*
X1450Y24077D02*
X73691Y96318D01*
X1450Y21249D02*
X73748Y93547D01*
X1450Y64422D02*
X64422Y1450D01*
X1450Y61594D02*
X61594Y1450D01*
X1450Y70079D02*
X70079Y1450D01*
X1450Y67251D02*
X67251Y1450D01*
X102847Y54347D02*
X111153D01*
X110916D02*
X111153Y54584D01*
X58019Y1450D02*
X110916Y54347D01*
X50666Y57632D02*
X106849Y1450D01*
X52362D02*
X105259Y54347D01*
X55190Y1450D02*
X108087Y54347D01*
X41453Y53047D02*
X50546D01*
Y43953D02*
Y53047D01*
X48296Y54346D02*
X49595Y53047D01*
X41733D02*
X43290Y54603D01*
X44561Y53047D02*
X45318Y53803D01*
X46060Y53754D02*
X46767Y53047D01*
X41453Y52767D02*
X41733Y53047D01*
X41453Y43953D02*
Y53047D01*
X49806Y55664D02*
X104020Y1450D01*
X74989D02*
X109044Y35505D01*
X46705Y1450D02*
X102847Y57592D01*
X49533Y1450D02*
X102847Y54764D01*
X106102Y1450D02*
X109168Y4516D01*
X108930Y1450D02*
X110193Y2713D01*
X77818Y1450D02*
X109695Y33327D01*
X80646Y1450D02*
X111182Y31986D01*
X50546Y49267D02*
X98363Y1450D01*
X50546Y46439D02*
X95535Y1450D01*
X43876D02*
X102847Y60421D01*
X50546Y52095D02*
X101192Y1450D01*
X47374Y43953D02*
X89878Y1450D01*
X50203Y43953D02*
X92707Y1450D01*
X41718Y43953D02*
X84221Y1450D01*
X44546Y43953D02*
X87050Y1450D01*
X1450Y4278D02*
X41453Y44282D01*
X1450Y7107D02*
X41453Y47110D01*
X1450Y55937D02*
X55937Y1450D01*
X1450Y15592D02*
X41925Y56067D01*
X1450Y58765D02*
X58765Y1450D01*
X41453Y44218D02*
X41718Y43953D01*
X41453D02*
X50546D01*
X4278Y1450D02*
X46782Y43953D01*
X7107Y1450D02*
X49610Y43953D01*
X1450Y9935D02*
X41453Y49939D01*
X1450Y33310D02*
X33310Y1450D01*
X1450Y18421D02*
X41261Y58232D01*
X1450Y12764D02*
X41453Y52767D01*
X1450Y21996D02*
X21996Y1450D01*
X1450Y19167D02*
X19167Y1450D01*
X1450Y30481D02*
X30481Y1450D01*
X1450Y24824D02*
X24824Y1450D01*
X1450Y47452D02*
X47452Y1450D01*
X1450Y44623D02*
X44623Y1450D01*
X1450Y53109D02*
X53109Y1450D01*
X1450Y50280D02*
X50280Y1450D01*
X1450Y41795D02*
X41795Y1450D01*
X1450Y38966D02*
X38966Y1450D01*
X1450D02*
X43953Y43953D01*
X1450Y1450D02*
X43953Y43953D01*
X1450Y16339D02*
X16339Y1450D01*
X1450Y13510D02*
X13510Y1450D01*
X1450Y36138D02*
X36138Y1450D01*
X1450Y27653D02*
X27653Y1450D01*
X1450Y5025D02*
X5025Y1450D01*
X1450Y2197D02*
X2197Y1450D01*
X1450Y10682D02*
X10682Y1450D01*
X1450Y7854D02*
X7854Y1450D01*
D28*
X77000Y95000D02*
D03*
X47000D02*
D03*
X105000Y122500D02*
D03*
X75000D02*
D03*
X159500Y121500D02*
D03*
X129500D02*
D03*
X159000Y90000D02*
D03*
Y60000D02*
D03*
X205000Y136000D02*
D03*
X31000Y138000D02*
D03*
D29*
X201618Y56118D02*
D03*
D30*
X221500Y36236D02*
D03*
X181736Y76000D02*
D03*
Y36236D02*
D03*
X221500Y76000D02*
D03*
D31*
X137500Y5500D02*
D03*
Y35500D02*
D03*
X113000D02*
D03*
Y5500D02*
D03*
X122343Y164500D02*
D03*
X112500D02*
D03*
D32*
X205000Y166000D02*
D03*
X31000Y168000D02*
D03*
D33*
X102657Y164500D02*
D03*
D34*
X107000Y58500D02*
D03*
D35*
X117000D02*
D03*
X127000D02*
D03*
X137000D02*
D03*
X107000Y88500D02*
D03*
X117000D02*
D03*
X127000D02*
D03*
X137000D02*
D03*
D36*
X46000Y48500D02*
D03*
D37*
Y58500D02*
D03*
M02*
