M48
;Layer_Color=9474304
;FILE_FORMAT=2:5
INCH,LZ
;TYPE=PLATED
T1F00S00C0.02756
T2F00S00C0.03346
T3F00S00C0.03543
T4F00S00C0.04134
T5F00S00C0.04685
T6F00S00C0.05315
%
T01
X0077Y0095
X0075Y01225
X0105
X01295Y01215
X01595
X0159Y009
Y006
X0205Y0136
Y0166
X0031Y0168
Y0138
X0047Y0095
T02
X0113Y00055
X01375
Y00355
X0113
T03
X0107Y00585
X0117
X0127
X0137
Y00885
X0127
X0117
X0107
X0102657Y01645
X01125
X0122343
T04
X0201618Y0056118
T05
X0046Y00485
Y00585
T06
X0181736Y0036236
X02215
Y0076
X0181736
M30
