G04*
G04 #@! TF.GenerationSoftware,Altium Limited,Altium Designer,20.1.14 (287)*
G04*
G04 Layer_Color=65535*
%FSLAX25Y25*%
%MOIN*%
G70*
G04*
G04 #@! TF.SameCoordinates,068E075E-6B28-4131-8978-D2EB394F3ECB*
G04*
G04*
G04 #@! TF.FilePolarity,Positive*
G04*
G01*
G75*
%ADD10C,0.00787*%
%ADD11C,0.00984*%
%ADD12C,0.02362*%
%ADD13C,0.01000*%
%ADD14C,0.00591*%
D10*
X235000Y151000D02*
G03*
X235000Y151000I-30000J0D01*
G01*
X61000Y153000D02*
G03*
X61000Y153000I-30000J0D01*
G01*
X101724Y71000D02*
G03*
X101724Y76000I0J2500D01*
G01*
X101724Y63067D02*
X142276D01*
X101724Y83933D02*
X142276D01*
X101724Y63067D02*
Y71000D01*
Y76000D02*
Y83933D01*
X142276Y63067D02*
Y83933D01*
X154622Y7213D02*
Y8787D01*
X157378Y7213D02*
Y8787D01*
X110000Y10500D02*
X116000D01*
Y30500D01*
X113000D02*
X116000D01*
X113000Y9600D02*
Y10500D01*
Y30500D02*
Y31400D01*
X137500Y10500D02*
X140500D01*
Y30500D01*
X134500D02*
X140500D01*
X134500Y10500D02*
X137500D01*
X134500D02*
Y30500D01*
X137500Y9600D02*
Y10500D01*
Y30500D02*
Y31400D01*
X34583Y63500D02*
X57417D01*
Y43500D02*
Y63500D01*
X34583Y43500D02*
Y63500D01*
Y43500D02*
X57417D01*
X110000Y10500D02*
Y30500D01*
X113000D01*
X127264Y154854D02*
Y174146D01*
X97736Y154854D02*
X127264D01*
X97736Y174146D02*
X127264D01*
X97736Y154854D02*
Y174146D01*
X151500Y97500D02*
X166500D01*
Y52500D02*
Y97500D01*
X151500Y52500D02*
X166500D01*
X151500D02*
Y97500D01*
X84500Y87500D02*
Y102500D01*
X39500Y87500D02*
X84500D01*
X177996Y40012D02*
X177996Y72224D01*
X225240D02*
X225241Y40012D01*
X185512Y79740D02*
X217725Y79741D01*
X185512Y32496D02*
X217725Y32496D01*
X67500Y115000D02*
Y130000D01*
X122000Y114000D02*
X167000D01*
X122000D02*
Y129000D01*
X112500Y115000D02*
Y130000D01*
X67500D02*
X112500D01*
X122000Y129000D02*
X167000D01*
X39500Y87500D02*
Y102500D01*
X84500D01*
X167000Y114000D02*
Y129000D01*
X67500Y115000D02*
X112500D01*
D11*
X103150Y176508D02*
G03*
X103150Y176508I-492J0D01*
G01*
X102374Y58500D02*
G03*
X102374Y58500I-492J0D01*
G01*
X46492Y40941D02*
G03*
X46492Y40941I-492J0D01*
G01*
D12*
X106843Y67004D02*
G03*
X106843Y67004I-1181J0D01*
G01*
D13*
X72997Y64000D02*
Y62001D01*
Y63000D01*
X66999D01*
Y64000D01*
Y62001D01*
Y59002D02*
X70998D01*
Y56003D01*
X69998Y55003D01*
X66999D01*
X65000Y53004D02*
X70998D01*
Y50005D01*
X69998Y49005D01*
X67999D01*
X66999Y50005D01*
Y53004D01*
X70998Y47006D02*
X67999D01*
X66999Y46006D01*
Y43007D01*
X70998D01*
X71998Y40008D02*
X70998D01*
Y41007D01*
Y39008D01*
Y40008D01*
X67999D01*
X66999Y39008D01*
X117500Y180500D02*
Y186498D01*
X120499D01*
X121499Y185498D01*
Y183499D01*
X120499Y182499D01*
X117500D01*
X124498Y180500D02*
X126497D01*
X127497Y181500D01*
Y183499D01*
X126497Y184499D01*
X124498D01*
X123498Y183499D01*
Y181500D01*
X124498Y180500D01*
X129496Y184499D02*
Y181500D01*
X130496Y180500D01*
X131495Y181500D01*
X132495Y180500D01*
X133495Y181500D01*
Y184499D01*
X138493Y180500D02*
X136494D01*
X135494Y181500D01*
Y183499D01*
X136494Y184499D01*
X138493D01*
X139493Y183499D01*
Y182499D01*
X135494D01*
X141492Y184499D02*
Y180500D01*
Y182499D01*
X142492Y183499D01*
X143492Y184499D01*
X144491D01*
X291497Y191500D02*
X285499D01*
Y188501D01*
X286499Y187501D01*
X287499D01*
X288498Y188501D01*
Y191500D01*
Y188501D01*
X289498Y187501D01*
X290498D01*
X291497Y188501D01*
Y191500D01*
X289498Y185502D02*
X286499D01*
X285499Y184502D01*
Y181503D01*
X284500D01*
X283500Y182503D01*
Y183503D01*
X285499Y181503D02*
X289498D01*
X285499Y173506D02*
X291497D01*
X285499Y169507D01*
X291497D01*
X289498Y166508D02*
Y164509D01*
X288498Y163509D01*
X285499D01*
Y166508D01*
X286499Y167508D01*
X287499Y166508D01*
Y163509D01*
X285499Y161510D02*
Y158511D01*
X286499Y157511D01*
X287499Y158511D01*
Y160510D01*
X288498Y161510D01*
X289498Y160510D01*
Y157511D01*
X285499Y152513D02*
Y154512D01*
X286499Y155512D01*
X288498D01*
X289498Y154512D01*
Y152513D01*
X288498Y151513D01*
X287499D01*
Y155512D01*
X289498Y149514D02*
X285499D01*
X287499D01*
X288498Y148514D01*
X289498Y147514D01*
Y146515D01*
X60500Y82499D02*
X59501Y83499D01*
X57501D01*
X56502Y82499D01*
Y78501D01*
X57501Y77501D01*
X59501D01*
X60500Y78501D01*
X66498Y83499D02*
X62500D01*
Y80500D01*
X64499Y81500D01*
X65499D01*
X66498Y80500D01*
Y78501D01*
X65499Y77501D01*
X63499D01*
X62500Y78501D01*
X92000Y111499D02*
X91000Y112499D01*
X89001D01*
X88001Y111499D01*
Y107501D01*
X89001Y106501D01*
X91000D01*
X92000Y107501D01*
X93999Y106501D02*
X95999D01*
X94999D01*
Y112499D01*
X93999Y111499D01*
X143500Y109999D02*
X142501Y110999D01*
X140501D01*
X139502Y109999D01*
Y106001D01*
X140501Y105001D01*
X142501D01*
X143500Y106001D01*
X145500Y109999D02*
X146499Y110999D01*
X148499D01*
X149498Y109999D01*
Y109000D01*
X148499Y108000D01*
X147499D01*
X148499D01*
X149498Y107000D01*
Y106001D01*
X148499Y105001D01*
X146499D01*
X145500Y106001D01*
X175499Y92500D02*
X176499Y93499D01*
Y95499D01*
X175499Y96498D01*
X171501D01*
X170501Y95499D01*
Y93499D01*
X171501Y92500D01*
X176499Y86502D02*
X175499Y88501D01*
X173500Y90500D01*
X171501D01*
X170501Y89501D01*
Y87501D01*
X171501Y86502D01*
X172500D01*
X173500Y87501D01*
Y90500D01*
X218500Y92999D02*
X216501D01*
X217500D01*
Y88001D01*
X216501Y87001D01*
X215501D01*
X214501Y88001D01*
X220499Y87001D02*
X222499D01*
X221499D01*
Y92999D01*
X220499Y91999D01*
X143501Y27499D02*
X149499D01*
Y24500D01*
X148499Y23500D01*
X146500D01*
X145500Y24500D01*
Y27499D01*
Y25499D02*
X143501Y23500D01*
Y21501D02*
Y19501D01*
Y20501D01*
X149499D01*
X148499Y21501D01*
X106499Y20002D02*
X100501D01*
Y23001D01*
X101501Y24000D01*
X103500D01*
X104500Y23001D01*
Y20002D01*
Y22001D02*
X106499Y24000D01*
Y29998D02*
Y26000D01*
X102500Y29998D01*
X101501D01*
X100501Y28999D01*
Y26999D01*
X101501Y26000D01*
X161502Y6001D02*
Y11999D01*
X164501D01*
X165500Y10999D01*
Y9000D01*
X164501Y8000D01*
X161502D01*
X163501D02*
X165500Y6001D01*
X167500Y10999D02*
X168499Y11999D01*
X170499D01*
X171498Y10999D01*
Y10000D01*
X170499Y9000D01*
X169499D01*
X170499D01*
X171498Y8000D01*
Y7001D01*
X170499Y6001D01*
X168499D01*
X167500Y7001D01*
X231000Y180999D02*
X230001Y181999D01*
X228001D01*
X227002Y180999D01*
Y177001D01*
X228001Y176001D01*
X230001D01*
X231000Y177001D01*
X236998Y176001D02*
X233000D01*
X236998Y180000D01*
Y180999D01*
X235999Y181999D01*
X233999D01*
X233000Y180999D01*
X14000Y190999D02*
X13001Y191999D01*
X11001D01*
X10002Y190999D01*
Y187001D01*
X11001Y186001D01*
X13001D01*
X14000Y187001D01*
X18999Y186001D02*
Y191999D01*
X16000Y189000D01*
X19998D01*
X98250Y180450D02*
Y186448D01*
X101249D01*
X102249Y185448D01*
Y183449D01*
X101249Y182449D01*
X98250D01*
X104248Y180450D02*
X106247D01*
X105248D01*
Y186448D01*
X104248Y185448D01*
X101900Y100898D02*
Y95900D01*
X102900Y94900D01*
X104899D01*
X105899Y95900D01*
Y100898D01*
X107898Y94900D02*
X109897D01*
X108898D01*
Y100898D01*
X107898Y99898D01*
X35100Y67000D02*
Y72998D01*
X38099D01*
X39099Y71998D01*
Y69999D01*
X38099Y68999D01*
X35100D01*
X45097Y67000D02*
X41098D01*
X45097Y70999D01*
Y71998D01*
X44097Y72998D01*
X42098D01*
X41098Y71998D01*
D14*
X204949Y183015D02*
Y186951D01*
X202981Y184983D02*
X206917D01*
X30949Y185015D02*
Y188951D01*
X28981Y186983D02*
X32917D01*
M02*
