G04*
G04 #@! TF.GenerationSoftware,Altium Limited,Altium Designer,20.1.14 (287)*
G04*
G04 Layer_Physical_Order=2*
G04 Layer_Color=16711680*
%FSLAX25Y25*%
%MOIN*%
G70*
G04*
G04 #@! TF.SameCoordinates,068E075E-6B28-4131-8978-D2EB394F3ECB*
G04*
G04*
G04 #@! TF.FilePolarity,Positive*
G04*
G01*
G75*
%ADD13C,0.01000*%
%ADD27C,0.00800*%
%ADD28C,0.04724*%
%ADD29C,0.06299*%
%ADD30C,0.07480*%
%ADD31C,0.05512*%
%ADD32R,0.04724X0.04724*%
%ADD33R,0.05512X0.05512*%
%ADD34R,0.05906X0.05906*%
%ADD35C,0.05906*%
%ADD36R,0.06693X0.06693*%
%ADD37C,0.06693*%
D13*
X205000Y166000D02*
X208362D01*
X205000D02*
Y169362D01*
X201638Y166000D02*
X205000D01*
Y162638D02*
Y166000D01*
X112500Y164500D02*
X116256D01*
X112500Y160744D02*
Y164500D01*
X129500Y121500D02*
X132862D01*
X129500Y118138D02*
Y121500D01*
Y124862D01*
X126138Y121500D02*
X129500D01*
X112500Y164500D02*
Y168256D01*
X108744Y164500D02*
X112500D01*
X221500Y76000D02*
X226240D01*
X221500Y71260D02*
Y76000D01*
Y80740D01*
X216760Y76000D02*
X221500D01*
X181736D02*
X186476D01*
X181736D02*
Y80740D01*
X176996Y76000D02*
X181736D01*
Y71260D02*
Y76000D01*
X221500Y36236D02*
Y40976D01*
Y36236D02*
X226240D01*
X216760D02*
X221500D01*
Y31496D02*
Y36236D01*
X181736D02*
X186476D01*
X176996D02*
X181736D01*
X159000Y60000D02*
Y63362D01*
Y60000D02*
X162362D01*
X155638D02*
X159000D01*
Y56638D02*
Y60000D01*
X127000Y58500D02*
Y62453D01*
X123047Y58500D02*
X127000D01*
X130953D01*
X127000Y54547D02*
Y58500D01*
X181736Y36236D02*
Y40976D01*
Y31496D02*
Y36236D01*
X31000Y138000D02*
X34362D01*
X31000D02*
Y141362D01*
Y134638D02*
Y138000D01*
X27638D02*
X31000D01*
X75000Y122500D02*
Y125862D01*
X71638Y122500D02*
X75000D01*
X78362D01*
X75000Y119138D02*
Y122500D01*
X47000Y95000D02*
Y98362D01*
X43638Y95000D02*
X47000D01*
X50362D01*
X47000Y91638D02*
Y95000D01*
X46000Y58500D02*
X50346D01*
X41654D02*
X46000D01*
Y54154D02*
Y58500D01*
Y62846D01*
X77000Y95000D02*
X78800Y93200D01*
X34500Y164500D02*
X102657D01*
X31000Y168000D02*
X34500Y164500D01*
X159500Y121500D02*
X190500D01*
X205000Y136000D01*
X112500Y164500D02*
X117000Y160000D01*
X199000D01*
X205000Y166000D01*
X75000Y122500D02*
X79100Y118400D01*
X126400D01*
X129500Y121500D01*
X75000Y105700D02*
Y122500D01*
X64300Y95000D02*
X75000Y105700D01*
X47000Y95000D02*
X64300D01*
X89000Y5500D02*
X113000D01*
X46000Y48500D02*
X89000Y5500D01*
X112300Y93200D02*
X117000Y88500D01*
X78800Y93200D02*
X112300D01*
X131700Y53800D02*
X152800D01*
X159000Y60000D02*
X175000Y76000D01*
X113000Y35500D02*
X137500D01*
X127000Y58500D02*
X131700Y53800D01*
X181736Y36236D02*
X221500D01*
X152800Y53800D02*
X159000Y60000D01*
X175000Y76000D02*
X181736D01*
D27*
X203989Y132584D02*
G03*
X208562Y136000I1011J3416D01*
G01*
D02*
G03*
X201584Y134989I-3562J0D01*
G01*
X190500Y119800D02*
G03*
X191704Y120300I0J1700D01*
G01*
X190500Y119800D02*
G03*
X191702Y120298I0J1700D01*
G01*
X162630Y123200D02*
G03*
X162630Y119800I-3130J-1700D01*
G01*
X162562Y90000D02*
G03*
X162562Y90000I-3562J0D01*
G01*
X126298Y164500D02*
G03*
X126298Y164500I-3956J0D01*
G01*
X133262Y121500D02*
G03*
X133262Y121500I-3762J0D01*
G01*
X116656Y164500D02*
G03*
X116656Y164500I-4156J0D01*
G01*
X113502Y94402D02*
G03*
X112300Y94900I-1202J-1202D01*
G01*
X141153Y88500D02*
G03*
X141153Y88500I-4153J0D01*
G01*
X131153D02*
G03*
X131153Y88500I-4153J0D01*
G01*
X113504Y94400D02*
G03*
X112300Y94900I-1204J-1200D01*
G01*
X121153Y88500D02*
G03*
X115523Y92381I-4153J0D01*
G01*
X113119Y89977D02*
G03*
X121153Y88500I3881J-1477D01*
G01*
X111153D02*
G03*
X109871Y91500I-4153J0D01*
G01*
X104129D02*
G03*
X111153Y88500I2871J-3000D01*
G01*
X226640Y76000D02*
G03*
X226640Y76000I-5140J0D01*
G01*
X205967Y56118D02*
G03*
X205967Y56118I-4350J0D01*
G01*
X186876Y76000D02*
G03*
X186876Y76000I-5140J0D01*
G01*
X226640Y36236D02*
G03*
X226640Y36236I-5140J0D01*
G01*
X186876D02*
G03*
X186876Y36236I-5140J0D01*
G01*
X162762Y60000D02*
G03*
X162762Y60000I-3762J0D01*
G01*
X141153Y58500D02*
G03*
X141153Y58500I-4153J0D01*
G01*
X131353D02*
G03*
X131353Y58500I-4353J0D01*
G01*
X121153D02*
G03*
X121153Y58500I-4153J0D01*
G01*
X141456Y35500D02*
G03*
X133928Y37200I-3956J0D01*
G01*
Y33800D02*
G03*
X141456Y35500I3572J1700D01*
G01*
Y5500D02*
G03*
X141456Y5500I-3956J0D01*
G01*
X116956D02*
G03*
X109428Y7200I-3956J0D01*
G01*
X116572Y37200D02*
G03*
X116572Y33800I-3572J-1700D01*
G01*
X109428Y3800D02*
G03*
X116956Y5500I3572J1700D01*
G01*
X108562Y122500D02*
G03*
X108562Y122500I-3562J0D01*
G01*
X33298Y163298D02*
G03*
X34500Y162800I1202J1202D01*
G01*
X33296Y163300D02*
G03*
X34500Y162800I1204J1200D01*
G01*
X34762Y138000D02*
G03*
X34762Y138000I-3762J0D01*
G01*
X78762Y122500D02*
G03*
X78762Y122500I-3762J0D01*
G01*
X80562Y95000D02*
G03*
X78151Y91629I-3562J0D01*
G01*
X50762Y95000D02*
G03*
X50762Y95000I-3762J0D01*
G01*
X78151Y91629D02*
G03*
X78800Y91500I649J1571D01*
G01*
X78151Y91629D02*
G03*
X78800Y91500I649J1571D01*
G01*
X50747Y58500D02*
G03*
X50747Y58500I-4747J0D01*
G01*
X87796Y4300D02*
G03*
X89000Y3800I1204J1200D01*
G01*
X87798Y4298D02*
G03*
X89000Y3800I1202J1202D01*
G01*
X208762Y168000D02*
X298500D01*
X208762Y164000D02*
X298500D01*
X208762Y166000D02*
X298500D01*
X208562Y136000D02*
X298500D01*
X207948Y138000D02*
X298500D01*
X207948Y134000D02*
X298500D01*
X208762Y162238D02*
Y169762D01*
X203404Y132000D02*
X298500D01*
X201238Y169762D02*
X208762D01*
X124186Y168000D02*
X201238D01*
Y162238D02*
X208762D01*
X201238D02*
Y169762D01*
X126003Y166000D02*
X201238D01*
X126267Y164000D02*
X201238D01*
X201404Y130000D02*
X298500D01*
X125408Y162000D02*
X298500D01*
X199404Y128000D02*
X298500D01*
X189796Y123200D02*
X201584Y134989D01*
X191704Y120300D02*
X203989Y132584D01*
X197404Y126000D02*
X298500D01*
X195404Y124000D02*
X298500D01*
X193404Y122000D02*
X298500D01*
X191300Y120000D02*
X298500D01*
X162630Y123200D02*
X189796D01*
X162630Y119800D02*
X190500D01*
X224728Y80000D02*
X298500D01*
X162562Y90000D02*
X298500D01*
X226235Y78000D02*
X298500D01*
X184964Y80000D02*
X218272D01*
X186471Y78000D02*
X216765D01*
X162038Y124000D02*
X190596D01*
X105663Y126000D02*
X192596D01*
X160163Y118000D02*
X298500D01*
X132950Y120000D02*
X156269D01*
X132311Y124000D02*
X156962D01*
X130880Y118000D02*
X158837D01*
X161948Y92000D02*
X298500D01*
X113904Y94000D02*
X298500D01*
X161948Y88000D02*
X298500D01*
X140316Y86000D02*
X298500D01*
X114741Y168000D02*
X120499D01*
X116376Y166000D02*
X118682D01*
X115820Y162000D02*
X119277D01*
X116626Y164000D02*
X118418D01*
X133229Y122000D02*
X155973D01*
X106613Y168000D02*
X110259D01*
X106613Y164000D02*
X108374D01*
X106613Y166000D02*
X108624D01*
X106613Y162000D02*
X109180D01*
X108527Y122000D02*
X125771D01*
X108231Y124000D02*
X126689D01*
X107538Y120000D02*
X126050D01*
X106613Y160544D02*
Y168456D01*
X139235Y92000D02*
X156052D01*
X129235D02*
X134765D01*
X140872Y90000D02*
X155438D01*
X130872D02*
X133128D01*
X120872D02*
X123128D01*
X131123Y88000D02*
X132877D01*
X141123D02*
X156052D01*
X130316Y86000D02*
X133684D01*
X121123Y88000D02*
X122877D01*
X120316Y86000D02*
X123684D01*
X113504Y94400D02*
X115523Y92381D01*
X119235Y92000D02*
X124765D01*
X111596Y91500D02*
X113119Y89977D01*
X109871Y91500D02*
X111596D01*
X110872Y90000D02*
X113096D01*
X110316Y86000D02*
X113684D01*
X111123Y88000D02*
X112877D01*
X226640Y76000D02*
X298500D01*
X226235Y74000D02*
X298500D01*
X224728Y72000D02*
X298500D01*
X205539Y58000D02*
X298500D01*
X203580Y60000D02*
X298500D01*
X205966Y56000D02*
X298500D01*
Y1450D02*
Y199050D01*
X186876Y76000D02*
X216360D01*
X186471Y74000D02*
X216765D01*
X184964Y72000D02*
X218272D01*
X162762Y60000D02*
X199655D01*
X162187Y62000D02*
X298500D01*
X162187Y58000D02*
X197696D01*
X140316Y56000D02*
X197270D01*
X205417Y54000D02*
X298500D01*
X203018Y52000D02*
X298500D01*
X225001Y40000D02*
X298500D01*
X226328Y38000D02*
X298500D01*
X226635Y36000D02*
X298500D01*
X226128Y34000D02*
X298500D01*
X224411Y32000D02*
X298500D01*
X186564Y38000D02*
X216672D01*
X185237Y40000D02*
X217999D01*
X186364Y34000D02*
X216872D01*
X186871Y36000D02*
X216365D01*
X141424Y6000D02*
X298500D01*
X140566Y8000D02*
X298500D01*
X139344Y2000D02*
X298500D01*
X184648Y32000D02*
X218589D01*
X141161Y4000D02*
X298500D01*
X139235Y62000D02*
X155813D01*
X140872Y60000D02*
X155238D01*
X129588Y62000D02*
X134765D01*
X131086Y60000D02*
X133128D01*
X141123Y58000D02*
X155813D01*
X131324D02*
X132877D01*
X119235Y62000D02*
X124412D01*
X120872Y60000D02*
X122914D01*
X111153Y62000D02*
X114765D01*
X111153Y60000D02*
X113128D01*
X121123Y58000D02*
X122676D01*
X111153Y54347D02*
Y62653D01*
Y58000D02*
X112877D01*
X140566Y38000D02*
X176908D01*
X141424Y36000D02*
X176602D01*
X130563Y56000D02*
X133684D01*
X120316D02*
X123437D01*
X141161Y34000D02*
X177108D01*
X139344Y32000D02*
X178825D01*
X116924Y6000D02*
X133576D01*
X116572Y33800D02*
X133928D01*
X116066Y38000D02*
X134434D01*
X114844Y32000D02*
X135656D01*
X111153Y56000D02*
X113684D01*
X102847Y54347D02*
X111153D01*
X116572Y37200D02*
X133928D01*
X116660Y4000D02*
X133839D01*
X116066Y8000D02*
X134434D01*
X114844Y2000D02*
X135656D01*
X1450Y192000D02*
X298500D01*
X1450Y194000D02*
X298500D01*
X1450Y186000D02*
X298500D01*
X1450Y188000D02*
X298500D01*
X1450Y198000D02*
X298500D01*
X1450Y199050D02*
X298500D01*
X1450Y196000D02*
X298500D01*
X1450Y182000D02*
X298500D01*
X1450Y184000D02*
X298500D01*
X1450Y180000D02*
X298500D01*
X98702Y168456D02*
X106613D01*
X34562Y170000D02*
X298500D01*
X98702Y160544D02*
X106613D01*
X1450Y172000D02*
X298500D01*
X1450Y174000D02*
X298500D01*
X1450Y160000D02*
X298500D01*
X1450Y178000D02*
X298500D01*
X1450Y190000D02*
X298500D01*
X1450Y176000D02*
X298500D01*
X1450Y150000D02*
X298500D01*
X1450Y152000D02*
X298500D01*
X1450Y148000D02*
X298500D01*
X1450Y156000D02*
X298500D01*
X1450Y158000D02*
X298500D01*
X1450Y154000D02*
X298500D01*
X1450Y144000D02*
X298500D01*
X1450Y146000D02*
X298500D01*
X34187Y140000D02*
X298500D01*
X1450Y142000D02*
X298500D01*
X34762Y138000D02*
X202052D01*
X34187Y136000D02*
X201438D01*
X1450Y130000D02*
X196596D01*
X78921Y98000D02*
X298500D01*
X1450Y128000D02*
X194596D01*
X80419Y96000D02*
X298500D01*
X76380Y126000D02*
X104337D01*
X80561Y94900D02*
X112300D01*
X1450Y114000D02*
X298500D01*
X1450Y116000D02*
X298500D01*
X1450Y112000D02*
X298500D01*
X1450Y132000D02*
X198596D01*
X1450Y134000D02*
X200596D01*
X1450Y118000D02*
X128120D01*
X1450Y102000D02*
X298500D01*
X1450Y104000D02*
X298500D01*
X1450Y100000D02*
X298500D01*
X1450Y108000D02*
X298500D01*
X1450Y110000D02*
X298500D01*
X1450Y106000D02*
X298500D01*
X98702Y166200D02*
Y168456D01*
X34562Y168000D02*
X98702D01*
X35204Y166200D02*
X98702D01*
X34500Y162800D02*
X98702D01*
X34562Y166842D02*
X35204Y166200D01*
X34562Y166842D02*
Y171562D01*
X32158Y164438D02*
X33296Y163300D01*
X98702Y160544D02*
Y162800D01*
X27438Y171562D02*
X34562D01*
X1450Y170000D02*
X27438D01*
Y164438D02*
X32158D01*
X27438D02*
Y171562D01*
X1450Y168000D02*
X27438D01*
X1450Y166000D02*
X27438D01*
X1450Y162000D02*
X98702D01*
X1450Y164000D02*
X32596D01*
X1450Y140000D02*
X27813D01*
X1450Y138000D02*
X27238D01*
X78729Y122000D02*
X101473D01*
X78450Y124000D02*
X101769D01*
X77811Y120000D02*
X102462D01*
X49270Y98000D02*
X75079D01*
X50627Y94000D02*
X73581D01*
X50627Y96000D02*
X73581D01*
X49270Y92000D02*
X75079D01*
X1450Y124000D02*
X71550D01*
X1450Y126000D02*
X73620D01*
X1450Y120000D02*
X72189D01*
X1450Y122000D02*
X71271D01*
X1450Y136000D02*
X27813D01*
X1450Y98000D02*
X44730D01*
X1450Y94000D02*
X43373D01*
X1450Y96000D02*
X43373D01*
X1450Y92000D02*
X44730D01*
X78800Y91500D02*
X104129D01*
X1450Y84000D02*
X298500D01*
X102847Y62653D02*
X111153D01*
X1450Y82000D02*
X298500D01*
X50503Y60000D02*
X102847D01*
X49206Y62000D02*
X102847D01*
X50720Y58000D02*
X102847D01*
X50546Y50000D02*
X298500D01*
X50546Y52000D02*
X200218D01*
X50546Y48000D02*
X298500D01*
X102847Y54347D02*
Y62653D01*
X50035Y56000D02*
X102847D01*
X47510Y54000D02*
X197819D01*
X1450Y78000D02*
X177001D01*
X1450Y80000D02*
X178508D01*
X1450Y76000D02*
X176596D01*
X1450Y88000D02*
X102877D01*
X1450Y90000D02*
X103128D01*
X1450Y86000D02*
X103684D01*
X1450Y66000D02*
X298500D01*
X1450Y68000D02*
X298500D01*
X1450Y64000D02*
X298500D01*
X1450Y72000D02*
X178508D01*
X1450Y74000D02*
X177001D01*
X1450Y70000D02*
X298500D01*
X78904Y18000D02*
X298500D01*
X76904Y20000D02*
X298500D01*
X80904Y16000D02*
X298500D01*
X72904Y24000D02*
X298500D01*
X70904Y26000D02*
X298500D01*
X74904Y22000D02*
X298500D01*
X84904Y12000D02*
X298500D01*
X82904Y14000D02*
X298500D01*
X86904Y10000D02*
X298500D01*
X89704Y7200D02*
X109428D01*
X88904Y8000D02*
X109934D01*
X89000Y3800D02*
X109428D01*
X52904Y44000D02*
X298500D01*
X50904Y46000D02*
X298500D01*
X54904Y42000D02*
X298500D01*
X58904Y38000D02*
X109934D01*
X56904Y40000D02*
X178235D01*
X60904Y36000D02*
X109076D01*
X68904Y28000D02*
X298500D01*
X66904Y30000D02*
X298500D01*
X1450Y1450D02*
X298500D01*
X64904Y32000D02*
X111156D01*
X62904Y34000D02*
X109339D01*
X1450Y2000D02*
X111156D01*
X50546Y46358D02*
Y53047D01*
X41453D02*
X50546D01*
Y46358D02*
X89704Y7200D01*
X41453Y43953D02*
Y53047D01*
X1450Y62000D02*
X42794D01*
X1450Y54000D02*
X44490D01*
X1450Y58000D02*
X41280D01*
X1450Y60000D02*
X41497D01*
X1450Y56000D02*
X41965D01*
X1450Y50000D02*
X41453D01*
X1450Y52000D02*
X41453D01*
X1450Y48000D02*
X41453D01*
X1450Y46000D02*
X41453D01*
X1450Y1450D02*
Y199050D01*
Y44000D02*
X41453D01*
X1450Y34000D02*
X58096D01*
X1450Y36000D02*
X56096D01*
X1450Y32000D02*
X60096D01*
X41453Y43953D02*
X48142D01*
X1450Y42000D02*
X50096D01*
X1450Y40000D02*
X52096D01*
X48142Y43953D02*
X87796Y4300D01*
X1450Y28000D02*
X64096D01*
X1450Y30000D02*
X62096D01*
X1450Y26000D02*
X66096D01*
X1450Y18000D02*
X74096D01*
X1450Y20000D02*
X72096D01*
X1450Y16000D02*
X76096D01*
X1450Y24000D02*
X68096D01*
X1450Y38000D02*
X54096D01*
X1450Y22000D02*
X70096D01*
X1450Y6000D02*
X86096D01*
X1450Y8000D02*
X84096D01*
X1450Y4000D02*
X88200D01*
X1450Y12000D02*
X80096D01*
X1450Y14000D02*
X78096D01*
X1450Y10000D02*
X82096D01*
D28*
X77000Y95000D02*
D03*
X47000D02*
D03*
X105000Y122500D02*
D03*
X75000D02*
D03*
X159500Y121500D02*
D03*
X129500D02*
D03*
X159000Y90000D02*
D03*
Y60000D02*
D03*
X205000Y136000D02*
D03*
X31000Y138000D02*
D03*
D29*
X201618Y56118D02*
D03*
D30*
X221500Y36236D02*
D03*
X181736Y76000D02*
D03*
Y36236D02*
D03*
X221500Y76000D02*
D03*
D31*
X137500Y5500D02*
D03*
Y35500D02*
D03*
X113000D02*
D03*
Y5500D02*
D03*
X122343Y164500D02*
D03*
X112500D02*
D03*
D32*
X205000Y166000D02*
D03*
X31000Y168000D02*
D03*
D33*
X102657Y164500D02*
D03*
D34*
X107000Y58500D02*
D03*
D35*
X117000D02*
D03*
X127000D02*
D03*
X137000D02*
D03*
X107000Y88500D02*
D03*
X117000D02*
D03*
X127000D02*
D03*
X137000D02*
D03*
D36*
X46000Y48500D02*
D03*
D37*
Y58500D02*
D03*
M02*
